<?xml version="1.0" encoding="UTF-8" standalone="no"?>
<!-- Created with Inkscape (http://www.inkscape.org/) -->

<svg
   width="79.671471mm"
   height="70.557137mm"
   viewBox="0 0 79.671471 70.557137"
   version="1.1"
   id="svg1"
   xml:space="preserve"
   xmlns:inkscape="http://www.inkscape.org/namespaces/inkscape"
   xmlns:sodipodi="http://sodipodi.sourceforge.net/DTD/sodipodi-0.dtd"
   xmlns="http://www.w3.org/2000/svg"
   xmlns:svg="http://www.w3.org/2000/svg"><sodipodi:namedview
     id="namedview1"
     pagecolor="#ffffff"
     bordercolor="#000000"
     borderopacity="0.25"
     inkscape:showpageshadow="2"
     inkscape:pageopacity="0.0"
     inkscape:pagecheckerboard="0"
     inkscape:deskcolor="#d1d1d1"
     inkscape:document-units="mm" /><defs
     id="defs1" /><g
     inkscape:label="Vrstva 1"
     inkscape:groupmode="layer"
     id="layer1"
     transform="translate(-65.076585,-113.22144)"><g
       transform="matrix(0.03527778,0,0,-0.03527778,16.689723,236.65996)"
       fill="#000000"
       stroke="none"
       id="g11"
       style="fill:#ffffff"><path
         d="m 2465,3479 c -54,-36 -141,-77 -211,-101 -61,-20 -88,-23 -239,-23 -146,0 -181,3 -248,23 -44,12 -92,29 -108,37 l -29,16 v -296 -295 h -131 c -119,0 -130,-2 -127,-17 3,-17 66,-18 1131,-21 1122,-2 1127,-2 1127,18 0,19 -7,20 -130,20 h -130 v 295 296 l -29,-15 c -103,-54 -383,-84 -523,-56 -75,14 -184,58 -263,105 -32,19 -58,35 -59,34 0,0 -14,-9 -31,-20 z m 105,-124 c 102,-51 203,-82 305,-93 93,-10 258,-1 330,17 81,21 75,38 75,-214 v -225 h -355 -356 l 3,122 3,123 49,27 50,26 -105,-5 c -107,-5 -201,-34 -231,-71 -11,-13 -6,-14 45,-8 l 57,7 v -110 -111 h -360 -360 v 225 c 0,173 3,225 13,225 6,0 41,-8 77,-17 45,-11 108,-16 205,-16 165,0 248,19 390,88 50,24 91,44 93,44 1,1 34,-15 72,-34 z"
         id="path1"
         style="fill:#ffffff" /><path
         d="m 2473,2653 c -7,-2 -13,-17 -13,-32 0,-28 -1,-28 -55,-27 -40,0 -62,-5 -82,-20 -37,-28 -51,-68 -34,-96 11,-18 11,-22 -3,-30 -9,-5 -16,-17 -16,-28 0,-10 -9,-21 -19,-25 -52,-16 -20,-73 43,-77 101,-5 169,14 181,52 11,33 -12,49 -73,52 -73,4 -85,28 -14,28 40,0 57,6 82,27 30,25 32,29 26,75 -6,46 -6,48 19,48 18,0 25,5 25,20 0,28 -36,46 -67,33 z m -59,-120 c -12,-50 -44,-73 -44,-32 0,29 18,59 36,59 11,0 13,-7 8,-27 z m -38,-154 c 3,-6 0,-15 -7,-20 -21,-14 -53,-6 -57,14 -3,13 3,17 27,17 16,0 33,-5 37,-11 z"
         id="path2"
         style="fill:#ffffff" /><path
         d="m 1507,2644 c -3,-3 -1,-14 5,-24 9,-14 6,-36 -12,-99 -26,-93 -48,-123 -46,-64 1,35 -1,38 -28,38 -57,0 -62,-72 -6,-95 39,-16 107,-7 132,18 11,10 30,56 44,102 13,46 31,91 39,100 8,9 12,20 8,23 -8,9 -127,9 -136,1 z"
         id="path3"
         style="fill:#ffffff" /><path
         d="m 2182,2615 c -16,-14 -36,-25 -44,-25 -23,0 -28,-10 -15,-31 9,-14 8,-29 -1,-64 -23,-85 -15,-105 44,-105 29,0 84,26 84,40 0,6 -10,10 -21,10 -19,0 -21,4 -16,33 10,58 25,87 47,87 11,0 20,7 20,15 0,8 -6,15 -14,15 -8,0 -16,10 -18,22 -4,32 -30,33 -66,3 z"
         id="path4"
         style="fill:#ffffff" /><path
         d="m 3243,2586 c -65,-29 -90,-123 -45,-168 33,-33 116,-33 143,1 27,33 24,37 -28,37 -61,-1 -68,20 -8,26 49,6 85,30 85,58 0,45 -88,73 -147,46 z m 57,-38 c 0,-20 -16,-41 -28,-37 -6,3 -6,13 -1,27 9,23 29,30 29,10 z"
         id="path5"
         style="fill:#ffffff" /><path
         d="m 3448,2585 c -28,-16 -45,-55 -33,-75 4,-6 24,-22 46,-36 41,-25 52,-54 21,-54 -9,0 -22,10 -27,23 -14,32 -69,32 -73,-1 -6,-44 102,-68 172,-38 63,26 57,79 -13,111 -27,12 -41,25 -41,37 0,24 26,23 33,-2 7,-28 77,-29 77,-1 0,28 -23,42 -82,47 -37,3 -61,0 -80,-11 z"
         id="path6"
         style="fill:#ffffff" /><path
         d="m 1688,2579 c -27,-15 -22,-47 7,-55 28,-7 55,10 55,34 0,12 3,13 11,5 7,-7 9,-23 5,-37 -6,-24 -9,-25 -55,-19 -41,5 -52,2 -70,-16 -53,-53 3,-126 70,-90 14,7 29,7 54,-2 28,-10 39,-10 60,1 26,14 33,36 14,42 -7,2 -7,12 0,31 18,46 13,84 -11,101 -25,18 -113,21 -140,5 z m 55,-119 c -6,-22 -33,-28 -33,-7 0,17 10,27 26,27 7,0 10,-8 7,-20 z"
         id="path7"
         style="fill:#ffffff" /><path
         d="m 1912,2582 c -7,-5 -10,-16 -7,-24 7,-18 -23,-136 -36,-144 -24,-15 -2,-24 57,-24 61,0 65,1 59,21 -8,24 12,116 27,125 6,4 15,-1 20,-10 24,-43 91,0 68,44 -12,22 -58,28 -77,9 -8,-8 -13,-8 -17,0 -8,13 -75,14 -94,3 z"
         id="path8"
         style="fill:#ffffff" /><path
         d="m 2578,2579 c -27,-15 -22,-47 7,-55 28,-7 55,10 55,34 0,12 3,13 11,5 6,-6 9,-22 5,-36 -5,-22 -9,-24 -55,-19 -40,3 -52,1 -70,-17 -54,-54 12,-132 74,-87 16,11 22,11 45,-2 17,-10 36,-13 53,-8 29,7 49,37 30,43 -8,3 -8,14 -2,36 15,53 11,85 -13,101 -25,18 -113,21 -140,5 z m 55,-119 c -6,-22 -33,-28 -33,-7 0,17 10,27 26,27 7,0 10,-8 7,-20 z"
         id="path9"
         style="fill:#ffffff" /><path
         d="m 2804,2584 c -6,-3 -9,-15 -7,-29 5,-24 -22,-122 -38,-139 -18,-20 -7,-26 50,-26 h 58 l 5,49 c 5,51 32,106 48,96 4,-3 1,-28 -8,-56 -12,-37 -13,-55 -6,-67 15,-24 71,-28 95,-6 21,19 26,40 7,28 -15,-10 -3,52 18,83 24,38 33,17 16,-38 -19,-60 -10,-83 37,-87 37,-4 81,26 59,39 -9,6 -9,16 0,47 17,55 15,99 -4,106 -29,11 -67,6 -87,-11 -18,-17 -19,-17 -28,0 -13,22 -81,23 -100,1 -11,-14 -13,-14 -21,0 -9,15 -67,21 -94,10 z"
         id="path10"
         style="fill:#ffffff" /><path
         d="m 1625,2200 c -13,-20 8,-30 63,-30 l 57,-1 55,-96 c 141,-246 373,-451 613,-544 l 80,-30 61,21 c 87,32 207,95 283,151 152,111 308,290 387,447 l 26,52 h 60 c 53,0 60,2 60,20 0,20 -7,20 -869,20 -569,0 -872,-3 -876,-10 z m 805,-36 c 0,-3 -7,-34 -16,-68 -21,-83 -66,-165 -122,-222 -44,-44 -45,-46 -14,-28 97,55 176,143 227,250 l 35,74 h 300 c 165,0 300,-3 300,-7 0,-14 -56,-101 -110,-173 -103,-135 -236,-250 -380,-327 -106,-58 -141,-67 -187,-53 -147,47 -323,173 -447,320 -66,78 -156,210 -156,229 0,8 88,11 285,11 157,0 285,-3 285,-6 z"
         id="path11"
         style="fill:#ffffff" /></g></g></svg>
